<svg width="140" height="140" viewBox="15 15 80 30" fill="none" xmlns="http://www.w3.org/2000/svg">
<path fill-rule="evenodd" clip-rule="evenodd" d="M53.7087 16C39.5102 16 28 27.5102 28 41.7087C28 49.1954 31.2002 55.9346 36.3072 60.6331C37.6297 59.9214 39.543 59.0974 42.2848 58.1262C46.3036 56.7046 47.8073 56.531 48.3645 55.7127C48.7526 55.1429 48.6817 54.2604 48.6817 52.4261C48.6817 51.1241 48.3734 50.749 47.9457 50.2289C47.4235 49.5939 46.7236 48.7426 46.1898 45.7239C46.0165 44.7269 45.859 44.4914 45.6601 44.1937C45.4257 43.8432 45.1338 43.4065 44.6904 41.5376C44.4219 40.4076 44.6002 39.928 44.7525 39.5183C44.845 39.2694 44.928 39.0464 44.8953 38.7189C44.8732 38.4965 44.851 38.2797 44.8276 38.0503C44.7598 37.3859 44.6812 36.6167 44.5609 35.3051C44.356 33.1024 46.4595 27.3293 53.9999 27.3293C61.5404 27.3293 63.6439 33.1024 63.4497 35.2947C63.3302 36.6056 63.2519 37.3697 63.1843 38.0287C63.1604 38.2619 63.1379 38.482 63.1153 38.7085C63.0827 39.0359 63.1656 39.259 63.2581 39.5079C63.4104 39.9176 63.5887 40.3971 63.3203 41.5272C62.8757 43.4066 62.5834 43.8433 62.3487 44.1938C62.1507 44.4897 61.9936 44.7243 61.8208 45.7135C61.2871 48.7322 60.5871 49.5835 60.065 50.2185C59.6373 50.7386 59.3289 51.1136 59.3289 52.4157C59.3289 54.2438 59.2582 55.1238 59.6449 55.6929C60.2012 56.5116 61.7041 56.687 65.7259 58.1157C68.4671 59.0909 70.3786 59.9157 71.6996 60.6268C76.8027 55.9286 80 49.192 80 41.7087C80 27.5102 68.4898 16 54.2913 16H53.7087Z" fill="#C4C4C4"/>

</svg>
