<?xml version="1.0" encoding="UTF-8"?>
<svg width="869px" height="336px" viewBox="0 0 869 336" version="1.1" xmlns="http://www.w3.org/2000/svg" xmlns:xlink="http://www.w3.org/1999/xlink">
    <!-- Generator: Sketch 3.6.1 (26313) - http://www.bohemiancoding.com/sketch -->
    <title>BDome</title>
    <desc>Created with Sketch.</desc>
    <defs></defs>
    <g id="Page-1" stroke="none" stroke-width="1" fill="none" fill-rule="evenodd">
        <g id="Bdome" transform="translate(-50.000000, -272.000000)">
            <g id="Page-1">
                <g id="Showcase">
                    <g id="BDome" transform="translate(50.000000, 272.000000)">
                        <path d="M562.5,56 L290.1,56 C292.8,52 295.7,50.1 298.8,47.3 C300.9,45.3 303.2,43.4 305.4,41.5 C335.9,16.5 378.8,0.6 426.3,0.6 C473.8,0.6 516.7,16.5 547.2,41.5 C549.5,43.4 551.7,45.3 553.8,47.3 C556.9,50.1 559.8,52 562.5,56 L562.5,56 L562.5,56 Z" id="Shape" fill="#724D33"></path>
                        <rect id="Rectangle-path" fill="#BB9A7A" x="159" y="60" width="275" height="27"></rect>
                        <rect id="Rectangle-path" fill="#836D54" x="115" y="76" width="169" height="29"></rect>
                        <rect id="Rectangle-path" fill="#AF907D" x="284" y="69" width="150" height="51"></rect>
                        <rect id="Rectangle-path" fill="#A28571" x="159" y="87" width="138" height="33"></rect>
                        <rect id="Rectangle-path" fill="#5A422F" x="175" y="91" width="32" height="27"></rect>
                        <rect id="Rectangle-path" fill="#5A422F" x="216" y="91" width="33" height="27"></rect>
                        <rect id="Rectangle-path" fill="#5A422F" x="255" y="91" width="35" height="27"></rect>
                        <rect id="Rectangle-path" fill="#5A422F" x="297" y="75" width="39" height="38"></rect>
                        <rect id="Rectangle-path" fill="#5A422F" x="349" y="75" width="36" height="38"></rect>
                        <rect id="Rectangle-path" fill="#5A422F" x="399" y="75" width="33" height="38"></rect>
                        <rect id="Rectangle-path" fill="#C3C3C3" x="206" y="282" width="18" height="38"></rect>
                        <path d="M0,167 L290,167 L290,336 L0,336" id="Shape" fill="#81644C"></path>
                        <rect id="Rectangle-path" fill="#44493C" x="85" y="287" width="20" height="33"></rect>
                        <rect id="Rectangle-path" fill="#10110E" opacity="0.3" x="163" y="260" width="6" height="76"></rect>
                        <rect id="Rectangle-path" fill="#10110E" opacity="0.3" x="271" y="249" width="6" height="87"></rect>
                        <rect id="Rectangle-path" fill="#44493C" x="206" y="282" width="18" height="35"></rect>
                        <rect id="Rectangle-path" fill="#44493C" x="267" y="298" width="17" height="22"></rect>
                        <rect id="Rectangle-path" fill="#10110E" opacity="0.3" x="85" y="249" width="186" height="11"></rect>
                        <rect id="Rectangle-path" fill="#85694B" x="89" y="167" width="195" height="82"></rect>
                        <rect id="Rectangle-path" fill="#AF8464" x="267" y="313" width="17" height="7"></rect>
                        <rect id="Rectangle-path" fill="#AF8464" x="267" y="298" width="17" height="7"></rect>
                        <rect id="Rectangle-path" fill="#D0A789" x="276" y="130" width="28" height="206"></rect>
                        <rect id="Rectangle-path" fill="#D0A789" x="135" y="151" width="32" height="185"></rect>
                        <path d="M0,167 L32,167 L32,336 L0,336" id="Shape" fill="#D0A789"></path>
                        <rect id="Rectangle-path" fill="#D0A789" x="46" y="167" width="14" height="169"></rect>
                        <rect id="Rectangle-path" fill="#44493C" x="301" y="76" width="33" height="33"></rect>
                        <rect id="Rectangle-path" fill="#44493C" x="218" y="91" width="27" height="27"></rect>
                        <rect id="Rectangle-path" fill="#44493C" x="260" y="91" width="24" height="27"></rect>
                        <rect id="Rectangle-path" fill="#AF8464" x="175" y="173" width="26" height="60"></rect>
                        <rect id="Rectangle-path" fill="#AF8464" x="204" y="173" width="30" height="60"></rect>
                        <rect id="Rectangle-path" fill="#AF8464" x="236" y="173" width="29" height="60"></rect>
                        <rect id="Rectangle-path" fill="#44493C" x="177" y="91" width="27" height="27"></rect>
                        <rect id="Rectangle-path" fill="#44493C" x="350" y="76" width="34" height="33"></rect>
                        <rect id="Rectangle-path" fill="#44493C" x="402" y="76" width="25" height="33"></rect>
                        <rect id="Rectangle-path" fill="#44493C" x="207" y="175" width="22" height="54"></rect>
                        <rect id="Rectangle-path" fill="#44493C" x="239" y="175" width="22" height="54"></rect>
                        <rect id="Rectangle-path" fill="#44493C" x="177" y="175" width="21" height="54"></rect>
                        <rect id="Rectangle-path" fill="#AF8464" x="98" y="173" width="29" height="60"></rect>
                        <rect id="Rectangle-path" fill="#44493C" x="105" y="175" width="21" height="54"></rect>
                        <rect id="Rectangle-path" fill="#AF8464" x="206" y="282" width="18" height="6"></rect>
                        <rect id="Rectangle-path" fill="#AF8464" x="85" y="287" width="20" height="6"></rect>
                        <rect id="Rectangle-path" fill="#AF8464" x="85" y="298" width="20" height="7"></rect>
                        <rect id="Rectangle-path" fill="#AF8464" x="85" y="313" width="20" height="7"></rect>
                        <rect id="Rectangle-path" fill="#AF8464" x="206" y="295" width="18" height="9"></rect>
                        <rect id="Rectangle-path" fill="#AF8464" x="206" y="313" width="18" height="7"></rect>
                        <path d="M0,130 L276,130 L276,167 L0,167" id="Shape" fill="#A3826A"></path>
                        <rect id="Rectangle-path" fill="#170300" x="110" y="109" width="49" height="21"></rect>
                        <rect id="Rectangle-path" fill="#7B5730" x="110" y="120" width="324" height="10"></rect>
                        <rect id="Rectangle-path" fill="#D0A789" x="304" y="130" width="130" height="9"></rect>
                        <rect id="Rectangle-path" fill="#D0A789" x="304" y="142" width="130" height="19"></rect>
                        <rect id="Rectangle-path" fill="#9E8067" x="304" y="139" width="130" height="6"></rect>
                        <rect id="Rectangle-path" fill="#9E8067" x="304" y="142" width="6" height="194"></rect>
                        <rect id="Rectangle-path" fill="#D0A789" x="310" y="154" width="18" height="182"></rect>
                        <rect id="Rectangle-path" fill="#77532A" x="321" y="161" width="113" height="5"></rect>
                        <rect id="Rectangle-path" fill="#77532A" x="316" y="161" width="5" height="175"></rect>
                        <rect id="Rectangle-path" fill="#AE896E" x="328" y="166" width="106" height="13"></rect>
                        <rect id="Rectangle-path" fill="#AE896E" x="321" y="166" width="7" height="170"></rect>
                        <rect id="Rectangle-path" fill="#6F503B" x="328" y="179" width="106" height="4"></rect>
                        <rect id="Rectangle-path" fill="#1B0602" x="328" y="183" width="16" height="153"></rect>
                        <rect id="Rectangle-path" fill="#1B0602" x="328" y="183" width="106" height="7"></rect>
                        <rect id="Rectangle-path" fill="#35332D" x="344" y="190" width="38" height="146"></rect>
                        <rect id="Rectangle-path" fill="#35332D" x="344" y="190" width="90" height="43"></rect>
                        <rect id="Rectangle-path" fill="#1D140E" x="382" y="233" width="17" height="103"></rect>
                        <rect id="Rectangle-path" fill="#1D140E" x="382" y="233" width="52" height="27"></rect>
                        <rect id="Rectangle-path" fill="#44493C" x="399" y="260" width="21" height="76"></rect>
                        <rect id="Rectangle-path" fill="#44493C" x="399" y="260" width="35" height="22"></rect>
                        <rect id="Rectangle-path" fill="#000005" x="420" y="282" width="14" height="54"></rect>
                        <rect id="Rectangle-path" fill="#A28571" x="95" y="105" width="64" height="4"></rect>
                        <rect id="Rectangle-path" fill="#AF907D" x="284" y="69" width="13" height="51"></rect>
                        <rect id="Rectangle-path" fill="#C9A790" x="271" y="69" width="163" height="6"></rect>
                        <rect id="Rectangle-path" fill="#AE815B" x="216" y="56" width="218" height="4"></rect>
                        <rect id="Rectangle-path" fill="#10110E" opacity="0.3" x="85" y="167" width="4" height="82"></rect>
                        <rect id="Rectangle-path" fill="#10110E" opacity="0.3" x="32" y="167" width="4" height="169"></rect>
                        <rect id="Rectangle-path" fill="#10110E" opacity="0.3" x="56" y="167" width="5" height="169"></rect>
                        <rect id="Rectangle-path" fill="#643F1E" x="276" y="154" width="28" height="7"></rect>
                        <rect id="Rectangle-path" fill="#643F1E" x="276" y="205" width="28" height="5"></rect>
                        <rect id="Rectangle-path" fill="#643F1E" x="276" y="251" width="28" height="6"></rect>
                        <rect id="Rectangle-path" fill="#643F1E" x="276" y="317" width="28" height="8"></rect>
                        <rect id="Rectangle-path" fill="#643F1E" x="135" y="187" width="32" height="5"></rect>
                        <rect id="Rectangle-path" fill="#643F1E" x="135" y="223" width="32" height="6"></rect>
                        <rect id="Rectangle-path" fill="#643F1E" x="135" y="260" width="32" height="6"></rect>
                        <rect id="Rectangle-path" fill="#643F1E" x="135" y="313" width="32" height="5"></rect>
                        <path d="M0,189 L32,189 L32,193 L0,193" id="Shape" fill="#643F1E"></path>
                        <path d="M0,226 L32,226 L32,231 L0,231" id="Shape" fill="#643F1E"></path>
                        <path d="M0,260 L32,260 L32,268 L0,268" id="Shape" fill="#643F1E"></path>
                        <path d="M0,314 L32,314 L32,320 L0,320" id="Shape" fill="#643F1E"></path>
                        <rect id="Rectangle-path" fill="#BB9A7A" x="434" y="60" width="274" height="27"></rect>
                        <rect id="Rectangle-path" fill="#836D54" x="585" y="76" width="168" height="29"></rect>
                        <rect id="Rectangle-path" fill="#AF907D" x="434" y="69" width="151" height="51"></rect>
                        <rect id="Rectangle-path" fill="#A28571" x="571" y="87" width="137" height="33"></rect>
                        <rect id="Rectangle-path" fill="#5A422F" x="660" y="91" width="34" height="27"></rect>
                        <rect id="Rectangle-path" fill="#5A422F" x="620" y="91" width="33" height="27"></rect>
                        <rect id="Rectangle-path" fill="#5A422F" x="579" y="91" width="35" height="27"></rect>
                        <rect id="Rectangle-path" fill="#5A422F" x="532" y="75" width="39" height="38"></rect>
                        <rect id="Rectangle-path" fill="#5A422F" x="483" y="75" width="36" height="38"></rect>
                        <rect id="Rectangle-path" fill="#5A422F" x="437" y="75" width="33" height="38"></rect>
                        <rect id="Rectangle-path" fill="#C3C3C3" x="642" y="282" width="20" height="38"></rect>
                        <path d="M869,167 L579,167 L579,336 L869,336" id="Shape" fill="#81644C"></path>
                        <rect id="Rectangle-path" fill="#44493C" x="764" y="287" width="19" height="33"></rect>
                        <rect id="Rectangle-path" fill="#10110E" opacity="0.3" x="699" y="260" width="6" height="76"></rect>
                        <rect id="Rectangle-path" fill="#10110E" opacity="0.3" x="591" y="249" width="6" height="87"></rect>
                        <rect id="Rectangle-path" fill="#44493C" x="642" y="282" width="20" height="35"></rect>
                        <rect id="Rectangle-path" fill="#44493C" x="585" y="298" width="16" height="22"></rect>
                        <rect id="Rectangle-path" fill="#10110E" opacity="0.3" x="597" y="249" width="186" height="11"></rect>
                        <rect id="Rectangle-path" fill="#85694B" x="585" y="167" width="194" height="82"></rect>
                        <rect id="Rectangle-path" fill="#AF8464" x="585" y="313" width="16" height="7"></rect>
                        <rect id="Rectangle-path" fill="#AF8464" x="585" y="298" width="16" height="7"></rect>
                        <rect id="Rectangle-path" fill="#D0A789" x="563" y="130" width="29" height="206"></rect>
                        <rect id="Rectangle-path" fill="#D0A789" x="701" y="151" width="31" height="185"></rect>
                        <path d="M869,167 L837,167 L837,336 L869,336" id="Shape" fill="#D0A789"></path>
                        <rect id="Rectangle-path" fill="#D0A789" x="808" y="167" width="14" height="169"></rect>
                        <rect id="Rectangle-path" fill="#44493C" x="533" y="76" width="34" height="33"></rect>
                        <rect id="Rectangle-path" fill="#44493C" x="622" y="91" width="29" height="27"></rect>
                        <rect id="Rectangle-path" fill="#44493C" x="585" y="91" width="23" height="27"></rect>
                        <rect id="Rectangle-path" fill="#AF8464" x="666" y="173" width="28" height="60"></rect>
                        <rect id="Rectangle-path" fill="#AF8464" x="634" y="173" width="29" height="60"></rect>
                        <rect id="Rectangle-path" fill="#AF8464" x="602" y="173" width="30" height="60"></rect>
                        <rect id="Rectangle-path" fill="#44493C" x="663" y="91" width="29" height="27"></rect>
                        <rect id="Rectangle-path" fill="#44493C" x="484" y="76" width="34" height="33"></rect>
                        <rect id="Rectangle-path" fill="#44493C" x="440" y="76" width="27" height="33"></rect>
                        <rect id="Rectangle-path" fill="#44493C" x="639" y="175" width="21" height="54"></rect>
                        <rect id="Rectangle-path" fill="#44493C" x="607" y="175" width="21" height="54"></rect>
                        <rect id="Rectangle-path" fill="#44493C" x="669" y="175" width="23" height="54"></rect>
                        <rect id="Rectangle-path" fill="#AF8464" x="741" y="173" width="29" height="60"></rect>
                        <rect id="Rectangle-path" fill="#44493C" x="742" y="175" width="22" height="54"></rect>
                        <rect id="Rectangle-path" fill="#AF8464" x="642" y="282" width="20" height="6"></rect>
                        <rect id="Rectangle-path" fill="#AF8464" x="764" y="287" width="19" height="6"></rect>
                        <rect id="Rectangle-path" fill="#AF8464" x="764" y="298" width="19" height="7"></rect>
                        <rect id="Rectangle-path" fill="#AF8464" x="764" y="313" width="19" height="7"></rect>
                        <rect id="Rectangle-path" fill="#AF8464" x="642" y="295" width="20" height="9"></rect>
                        <rect id="Rectangle-path" fill="#AF8464" x="642" y="313" width="20" height="7"></rect>
                        <path d="M869,130 L592,130 L592,167 L869,167" id="Shape" fill="#A3826A"></path>
                        <rect id="Rectangle-path" fill="#170300" x="708" y="109" width="51" height="21"></rect>
                        <rect id="Rectangle-path" fill="#7B5730" x="434" y="120" width="325" height="10"></rect>
                        <rect id="Rectangle-path" fill="#D0A789" x="434" y="130" width="129" height="9"></rect>
                        <rect id="Rectangle-path" fill="#D0A789" x="434" y="142" width="129" height="19"></rect>
                        <rect id="Rectangle-path" fill="#9E8067" x="434" y="139" width="129" height="6"></rect>
                        <rect id="Rectangle-path" fill="#9E8067" x="557" y="142" width="6" height="194"></rect>
                        <rect id="Rectangle-path" fill="#D0A789" x="541" y="154" width="16" height="182"></rect>
                        <rect id="Rectangle-path" fill="#77532A" x="434" y="161" width="114" height="5"></rect>
                        <rect id="Rectangle-path" fill="#77532A" x="548" y="161" width="3" height="175"></rect>
                        <rect id="Rectangle-path" fill="#AE896E" x="434" y="166" width="107" height="13"></rect>
                        <rect id="Rectangle-path" fill="#AE896E" x="541" y="166" width="7" height="170"></rect>
                        <rect id="Rectangle-path" fill="#6F503B" x="434" y="179" width="107" height="4"></rect>
                        <rect id="Rectangle-path" fill="#1B0602" x="524" y="183" width="17" height="153"></rect>
                        <rect id="Rectangle-path" fill="#1B0602" x="434" y="183" width="107" height="7"></rect>
                        <rect id="Rectangle-path" fill="#35332D" x="485" y="190" width="39" height="146"></rect>
                        <rect id="Rectangle-path" fill="#35332D" x="434" y="190" width="90" height="43"></rect>
                        <rect id="Rectangle-path" fill="#1D140E" x="470" y="233" width="15" height="103"></rect>
                        <rect id="Rectangle-path" fill="#1D140E" x="434" y="233" width="51" height="27"></rect>
                        <rect id="Rectangle-path" fill="#44493C" x="447" y="260" width="23" height="76"></rect>
                        <rect id="Rectangle-path" fill="#44493C" x="434" y="260" width="36" height="22"></rect>
                        <rect id="Rectangle-path" fill="#000005" x="434" y="282" width="13" height="54"></rect>
                        <rect id="Rectangle-path" fill="#A28571" x="708" y="105" width="65" height="4"></rect>
                        <rect id="Rectangle-path" fill="#AF907D" x="571" y="69" width="14" height="51"></rect>
                        <rect id="Rectangle-path" fill="#C9A790" x="434" y="69" width="163" height="6"></rect>
                        <rect id="Rectangle-path" fill="#AE815B" x="434" y="56" width="219" height="4"></rect>
                        <rect id="Rectangle-path" fill="#10110E" opacity="0.3" x="779" y="167" width="4" height="82"></rect>
                        <rect id="Rectangle-path" fill="#10110E" opacity="0.3" x="833" y="167" width="4" height="169"></rect>
                        <rect id="Rectangle-path" fill="#10110E" opacity="0.3" x="807" y="167" width="2" height="169"></rect>
                        <rect id="Rectangle-path" fill="#643F1E" x="563" y="154" width="29" height="7"></rect>
                        <rect id="Rectangle-path" fill="#643F1E" x="563" y="205" width="29" height="5"></rect>
                        <rect id="Rectangle-path" fill="#643F1E" x="563" y="251" width="29" height="6"></rect>
                        <rect id="Rectangle-path" fill="#643F1E" x="563" y="317" width="29" height="8"></rect>
                        <rect id="Rectangle-path" fill="#643F1E" x="701" y="187" width="31" height="5"></rect>
                        <rect id="Rectangle-path" fill="#643F1E" x="701" y="223" width="31" height="6"></rect>
                        <rect id="Rectangle-path" fill="#643F1E" x="701" y="260" width="31" height="6"></rect>
                        <rect id="Rectangle-path" fill="#643F1E" x="701" y="313" width="31" height="5"></rect>
                        <path d="M869,189 L837,189 L837,193 L869,193" id="Shape" fill="#643F1E"></path>
                        <path d="M869,226 L837,226 L837,231 L869,231" id="Shape" fill="#643F1E"></path>
                        <path d="M869,260 L837,260 L837,268 L869,268" id="Shape" fill="#643F1E"></path>
                        <path d="M869,314 L837,314 L837,320 L869,320" id="Shape" fill="#643F1E"></path>
                        <rect id="Rectangle-path" fill="#AF907D" x="432" y="75" width="5" height="45"></rect>
                        <path d="M553.8,47 L298.8,47 C300.9,46 303.2,42 305.4,41 L547.2,41 C549.5,42 551.7,46 553.8,47 L553.8,47 L553.8,47 Z" id="Shape" fill="#BB9A7A"></path>
                        <path d="M562.5,56 L290.1,56 C292.8,52 295.7,50.1 298.8,47.3 C300.9,45.3 303.2,43.4 305.4,41.5 C335.9,16.5 378.8,0.6 426.3,0.6 C473.8,0.6 516.7,16.5 547.2,41.5 C549.5,43.4 551.7,45.3 553.8,47.3 C556.9,50.1 559.8,52 562.5,56 L562.5,56 L562.5,56 Z" id="Shape" fill="#724D33"></path>
                        <rect id="Rectangle-path" fill="#BB9A7A" x="159" y="60" width="275" height="27"></rect>
                        <rect id="Rectangle-path" fill="#836D54" x="115" y="76" width="169" height="29"></rect>
                        <rect id="Rectangle-path" fill="#AF907D" x="284" y="69" width="150" height="51"></rect>
                        <rect id="Rectangle-path" fill="#A28571" x="159" y="87" width="138" height="33"></rect>
                        <rect id="Rectangle-path" fill="#5A422F" x="175" y="91" width="32" height="27"></rect>
                        <rect id="Rectangle-path" fill="#5A422F" x="216" y="91" width="33" height="27"></rect>
                        <rect id="Rectangle-path" fill="#5A422F" x="255" y="91" width="35" height="27"></rect>
                        <rect id="Rectangle-path" fill="#5A422F" x="297" y="75" width="39" height="38"></rect>
                        <rect id="Rectangle-path" fill="#5A422F" x="349" y="75" width="36" height="38"></rect>
                        <rect id="Rectangle-path" fill="#5A422F" x="399" y="75" width="33" height="38"></rect>
                        <rect id="Rectangle-path" fill="#C3C3C3" x="206" y="282" width="18" height="38"></rect>
                        <path d="M0,167 L290,167 L290,336 L0,336" id="Shape" fill="#81644C"></path>
                        <rect id="Rectangle-path" fill="#44493C" x="85" y="287" width="20" height="33"></rect>
                        <rect id="Rectangle-path" fill="#10110E" opacity="0.3" x="163" y="260" width="6" height="76"></rect>
                        <rect id="Rectangle-path" fill="#10110E" opacity="0.3" x="271" y="249" width="6" height="87"></rect>
                        <rect id="Rectangle-path" fill="#44493C" x="206" y="282" width="18" height="35"></rect>
                        <rect id="Rectangle-path" fill="#44493C" x="267" y="298" width="17" height="22"></rect>
                        <rect id="Rectangle-path" fill="#10110E" opacity="0.3" x="85" y="249" width="186" height="11"></rect>
                        <rect id="Rectangle-path" fill="#85694B" x="89" y="167" width="195" height="82"></rect>
                        <rect id="Rectangle-path" fill="#AF8464" x="267" y="313" width="17" height="7"></rect>
                        <rect id="Rectangle-path" fill="#AF8464" x="267" y="298" width="17" height="7"></rect>
                        <rect id="Rectangle-path" fill="#D0A789" x="276" y="130" width="28" height="206"></rect>
                        <rect id="Rectangle-path" fill="#D0A789" x="135" y="151" width="32" height="185"></rect>
                        <path d="M0,167 L32,167 L32,336 L0,336" id="Shape" fill="#D0A789"></path>
                        <rect id="Rectangle-path" fill="#D0A789" x="46" y="167" width="14" height="169"></rect>
                        <rect id="Rectangle-path" fill="#44493C" x="301" y="76" width="33" height="33"></rect>
                        <rect id="Rectangle-path" fill="#44493C" x="218" y="91" width="27" height="27"></rect>
                        <rect id="Rectangle-path" fill="#44493C" x="260" y="91" width="24" height="27"></rect>
                        <rect id="Rectangle-path" fill="#AF8464" x="175" y="173" width="26" height="60"></rect>
                        <rect id="Rectangle-path" fill="#AF8464" x="204" y="173" width="30" height="60"></rect>
                        <rect id="Rectangle-path" fill="#AF8464" x="236" y="173" width="29" height="60"></rect>
                        <rect id="Rectangle-path" fill="#44493C" x="177" y="91" width="27" height="27"></rect>
                        <rect id="Rectangle-path" fill="#44493C" x="350" y="76" width="34" height="33"></rect>
                        <rect id="Rectangle-path" fill="#44493C" x="402" y="76" width="25" height="33"></rect>
                        <rect id="Rectangle-path" fill="#44493C" x="207" y="175" width="22" height="54"></rect>
                        <rect id="Rectangle-path" fill="#44493C" x="239" y="175" width="22" height="54"></rect>
                        <rect id="Rectangle-path" fill="#44493C" x="177" y="175" width="21" height="54"></rect>
                        <rect id="Rectangle-path" fill="#AF8464" x="206" y="282" width="18" height="6"></rect>
                        <rect id="Rectangle-path" fill="#AF8464" x="85" y="287" width="20" height="6"></rect>
                        <rect id="Rectangle-path" fill="#AF8464" x="85" y="298" width="20" height="7"></rect>
                        <rect id="Rectangle-path" fill="#AF8464" x="85" y="313" width="20" height="7"></rect>
                        <rect id="Rectangle-path" fill="#AF8464" x="206" y="295" width="18" height="9"></rect>
                        <rect id="Rectangle-path" fill="#AF8464" x="206" y="313" width="18" height="7"></rect>
                        <path d="M0,130 L276,130 L276,167 L0,167" id="Shape" fill="#A3826A"></path>
                        <rect id="Rectangle-path" fill="#170300" x="110" y="109" width="49" height="21"></rect>
                        <rect id="Rectangle-path" fill="#7B5730" x="110" y="120" width="324" height="10"></rect>
                        <rect id="Rectangle-path" fill="#D0A789" x="304" y="130" width="130" height="9"></rect>
                        <rect id="Rectangle-path" fill="#D0A789" x="304" y="142" width="130" height="19"></rect>
                        <rect id="Rectangle-path" fill="#9E8067" x="304" y="139" width="130" height="6"></rect>
                        <rect id="Rectangle-path" fill="#9E8067" x="304" y="142" width="6" height="194"></rect>
                        <rect id="Rectangle-path" fill="#D0A789" x="310" y="154" width="18" height="182"></rect>
                        <rect id="Rectangle-path" fill="#77532A" x="321" y="161" width="113" height="5"></rect>
                        <rect id="Rectangle-path" fill="#77532A" x="316" y="161" width="5" height="175"></rect>
                        <rect id="Rectangle-path" fill="#AE896E" x="328" y="166" width="106" height="13"></rect>
                        <rect id="Rectangle-path" fill="#AE896E" x="321" y="166" width="7" height="170"></rect>
                        <rect id="Rectangle-path" fill="#6F503B" x="328" y="179" width="106" height="4"></rect>
                        <rect id="Rectangle-path" fill="#1B0602" x="328" y="183" width="16" height="153"></rect>
                        <rect id="Rectangle-path" fill="#1B0602" x="328" y="183" width="106" height="7"></rect>
                        <rect id="Rectangle-path" fill="#35332D" x="344" y="190" width="38" height="146"></rect>
                        <rect id="Rectangle-path" fill="#35332D" x="344" y="190" width="90" height="43"></rect>
                        <rect id="Rectangle-path" fill="#1D140E" x="382" y="233" width="17" height="103"></rect>
                        <rect id="Rectangle-path" fill="#1D140E" x="382" y="233" width="52" height="27"></rect>
                        <rect id="Rectangle-path" fill="#44493C" x="399" y="260" width="21" height="76"></rect>
                        <rect id="Rectangle-path" fill="#44493C" x="399" y="260" width="35" height="22"></rect>
                        <rect id="Rectangle-path" fill="#000005" x="420" y="282" width="14" height="54"></rect>
                        <rect id="Rectangle-path" fill="#A28571" x="95" y="105" width="64" height="4"></rect>
                        <rect id="Rectangle-path" fill="#AF907D" x="284" y="69" width="13" height="51"></rect>
                        <rect id="Rectangle-path" fill="#C9A790" x="271" y="69" width="163" height="6"></rect>
                        <rect id="Rectangle-path" fill="#AE815B" x="216" y="56" width="218" height="4"></rect>
                        <rect id="Rectangle-path" fill="#10110E" opacity="0.3" x="85" y="167" width="4" height="82"></rect>
                        <rect id="Rectangle-path" fill="#10110E" opacity="0.3" x="32" y="167" width="4" height="169"></rect>
                        <rect id="Rectangle-path" fill="#10110E" opacity="0.3" x="56" y="167" width="5" height="169"></rect>
                        <rect id="Rectangle-path" fill="#643F1E" x="276" y="154" width="28" height="7"></rect>
                        <rect id="Rectangle-path" fill="#643F1E" x="276" y="205" width="28" height="5"></rect>
                        <rect id="Rectangle-path" fill="#643F1E" x="276" y="251" width="28" height="6"></rect>
                        <rect id="Rectangle-path" fill="#643F1E" x="276" y="317" width="28" height="8"></rect>
                        <rect id="Rectangle-path" fill="#643F1E" x="135" y="187" width="32" height="5"></rect>
                        <rect id="Rectangle-path" fill="#643F1E" x="135" y="223" width="32" height="6"></rect>
                        <rect id="Rectangle-path" fill="#643F1E" x="135" y="260" width="32" height="6"></rect>
                        <rect id="Rectangle-path" fill="#643F1E" x="135" y="313" width="32" height="5"></rect>
                        <path d="M0,189 L32,189 L32,193 L0,193" id="Shape" fill="#643F1E"></path>
                        <path d="M0,226 L32,226 L32,231 L0,231" id="Shape" fill="#643F1E"></path>
                        <path d="M0,260 L32,260 L32,268 L0,268" id="Shape" fill="#643F1E"></path>
                        <path d="M0,314 L32,314 L32,320 L0,320" id="Shape" fill="#643F1E"></path>
                        <rect id="Rectangle-path" fill="#BB9A7A" x="434" y="60" width="274" height="27"></rect>
                        <rect id="Rectangle-path" fill="#836D54" x="585" y="76" width="168" height="29"></rect>
                        <rect id="Rectangle-path" fill="#AF907D" x="434" y="69" width="151" height="51"></rect>
                        <rect id="Rectangle-path" fill="#A28571" x="571" y="87" width="137" height="33"></rect>
                        <rect id="Rectangle-path" fill="#5A422F" x="660" y="91" width="34" height="27"></rect>
                        <rect id="Rectangle-path" fill="#5A422F" x="620" y="91" width="33" height="27"></rect>
                        <rect id="Rectangle-path" fill="#5A422F" x="579" y="91" width="35" height="27"></rect>
                        <rect id="Rectangle-path" fill="#5A422F" x="532" y="75" width="39" height="38"></rect>
                        <rect id="Rectangle-path" fill="#5A422F" x="483" y="75" width="36" height="38"></rect>
                        <rect id="Rectangle-path" fill="#5A422F" x="437" y="75" width="33" height="38"></rect>
                        <rect id="Rectangle-path" fill="#C3C3C3" x="642" y="282" width="20" height="38"></rect>
                        <path d="M869,167 L579,167 L579,336 L869,336" id="Shape" fill="#81644C"></path>
                        <rect id="Rectangle-path" fill="#44493C" x="764" y="287" width="19" height="33"></rect>
                        <rect id="Rectangle-path" fill="#10110E" opacity="0.3" x="699" y="260" width="6" height="76"></rect>
                        <rect id="Rectangle-path" fill="#10110E" opacity="0.3" x="591" y="249" width="6" height="87"></rect>
                        <rect id="Rectangle-path" fill="#44493C" x="642" y="282" width="20" height="35"></rect>
                        <rect id="Rectangle-path" fill="#44493C" x="585" y="298" width="16" height="22"></rect>
                        <rect id="Rectangle-path" fill="#10110E" opacity="0.3" x="597" y="249" width="186" height="11"></rect>
                        <rect id="Rectangle-path" fill="#85694B" x="585" y="167" width="194" height="82"></rect>
                        <rect id="Rectangle-path" fill="#AF8464" x="585" y="313" width="16" height="7"></rect>
                        <rect id="Rectangle-path" fill="#AF8464" x="585" y="298" width="16" height="7"></rect>
                        <rect id="Rectangle-path" fill="#D0A789" x="563" y="130" width="29" height="206"></rect>
                        <rect id="Rectangle-path" fill="#D0A789" x="701" y="151" width="31" height="185"></rect>
                        <path d="M869,167 L837,167 L837,336 L869,336" id="Shape" fill="#D0A789"></path>
                        <rect id="Rectangle-path" fill="#D0A789" x="808" y="167" width="14" height="169"></rect>
                        <rect id="Rectangle-path" fill="#44493C" x="533" y="76" width="34" height="33"></rect>
                        <rect id="Rectangle-path" fill="#44493C" x="622" y="91" width="29" height="27"></rect>
                        <rect id="Rectangle-path" fill="#44493C" x="585" y="91" width="23" height="27"></rect>
                        <rect id="Rectangle-path" fill="#AF8464" x="666" y="173" width="28" height="60"></rect>
                        <rect id="Rectangle-path" fill="#AF8464" x="634" y="173" width="29" height="60"></rect>
                        <rect id="Rectangle-path" fill="#AF8464" x="602" y="173" width="30" height="60"></rect>
                        <rect id="Rectangle-path" fill="#44493C" x="663" y="91" width="29" height="27"></rect>
                        <rect id="Rectangle-path" fill="#44493C" x="484" y="76" width="34" height="33"></rect>
                        <rect id="Rectangle-path" fill="#44493C" x="440" y="76" width="27" height="33"></rect>
                        <rect id="Rectangle-path" fill="#44493C" x="639" y="175" width="21" height="54"></rect>
                        <rect id="Rectangle-path" fill="#44493C" x="607" y="175" width="21" height="54"></rect>
                        <rect id="Rectangle-path" fill="#44493C" x="669" y="175" width="23" height="54"></rect>
                        <rect id="Rectangle-path" fill="#AF8464" x="741" y="173" width="29" height="60"></rect>
                        <rect id="Rectangle-path" fill="#44493C" x="742" y="175" width="22" height="54"></rect>
                        <rect id="Rectangle-path" fill="#AF8464" x="642" y="282" width="20" height="6"></rect>
                        <rect id="Rectangle-path" fill="#AF8464" x="764" y="287" width="19" height="6"></rect>
                        <rect id="Rectangle-path" fill="#AF8464" x="764" y="298" width="19" height="7"></rect>
                        <rect id="Rectangle-path" fill="#AF8464" x="764" y="313" width="19" height="7"></rect>
                        <rect id="Rectangle-path" fill="#AF8464" x="642" y="295" width="20" height="9"></rect>
                        <rect id="Rectangle-path" fill="#AF8464" x="642" y="313" width="20" height="7"></rect>
                        <path d="M869,130 L592,130 L592,167 L869,167" id="Shape" fill="#A3826A"></path>
                        <rect id="Rectangle-path" fill="#170300" x="708" y="109" width="51" height="21"></rect>
                        <rect id="Rectangle-path" fill="#7B5730" x="434" y="120" width="325" height="10"></rect>
                        <rect id="Rectangle-path" fill="#D0A789" x="434" y="130" width="129" height="9"></rect>
                        <rect id="Rectangle-path" fill="#D0A789" x="434" y="142" width="129" height="19"></rect>
                        <rect id="Rectangle-path" fill="#9E8067" x="434" y="139" width="129" height="6"></rect>
                        <rect id="Rectangle-path" fill="#9E8067" x="557" y="142" width="6" height="194"></rect>
                        <rect id="Rectangle-path" fill="#D0A789" x="541" y="154" width="16" height="182"></rect>
                        <rect id="Rectangle-path" fill="#77532A" x="434" y="161" width="114" height="5"></rect>
                        <rect id="Rectangle-path" fill="#77532A" x="548" y="161" width="3" height="175"></rect>
                        <rect id="Rectangle-path" fill="#AE896E" x="434" y="166" width="107" height="13"></rect>
                        <rect id="Rectangle-path" fill="#AE896E" x="541" y="166" width="7" height="170"></rect>
                        <rect id="Rectangle-path" fill="#6F503B" x="434" y="179" width="107" height="4"></rect>
                        <rect id="Rectangle-path" fill="#1B0602" x="524" y="183" width="17" height="153"></rect>
                        <rect id="Rectangle-path" fill="#1B0602" x="434" y="183" width="107" height="7"></rect>
                        <rect id="Rectangle-path" fill="#35332D" x="485" y="190" width="39" height="146"></rect>
                        <rect id="Rectangle-path" fill="#35332D" x="434" y="190" width="90" height="43"></rect>
                        <rect id="Rectangle-path" fill="#1D140E" x="470" y="233" width="15" height="103"></rect>
                        <rect id="Rectangle-path" fill="#1D140E" x="434" y="233" width="51" height="27"></rect>
                        <rect id="Rectangle-path" fill="#44493C" x="447" y="260" width="23" height="76"></rect>
                        <rect id="Rectangle-path" fill="#44493C" x="434" y="260" width="36" height="22"></rect>
                        <rect id="Rectangle-path" fill="#000005" x="434" y="282" width="13" height="54"></rect>
                        <rect id="Rectangle-path" fill="#A28571" x="708" y="105" width="65" height="4"></rect>
                        <rect id="Rectangle-path" fill="#AF907D" x="571" y="69" width="14" height="51"></rect>
                        <rect id="Rectangle-path" fill="#C9A790" x="434" y="69" width="163" height="6"></rect>
                        <rect id="Rectangle-path" fill="#AE815B" x="434" y="56" width="219" height="4"></rect>
                        <rect id="Rectangle-path" fill="#10110E" opacity="0.3" x="779" y="167" width="4" height="82"></rect>
                        <rect id="Rectangle-path" fill="#10110E" opacity="0.3" x="833" y="167" width="4" height="169"></rect>
                        <rect id="Rectangle-path" fill="#10110E" opacity="0.3" x="807" y="167" width="2" height="169"></rect>
                        <rect id="Rectangle-path" fill="#643F1E" x="563" y="154" width="29" height="7"></rect>
                        <rect id="Rectangle-path" fill="#643F1E" x="563" y="205" width="29" height="5"></rect>
                        <rect id="Rectangle-path" fill="#643F1E" x="563" y="251" width="29" height="6"></rect>
                        <rect id="Rectangle-path" fill="#643F1E" x="563" y="317" width="29" height="8"></rect>
                        <rect id="Rectangle-path" fill="#643F1E" x="701" y="187" width="31" height="5"></rect>
                        <rect id="Rectangle-path" fill="#643F1E" x="701" y="223" width="31" height="6"></rect>
                        <rect id="Rectangle-path" fill="#643F1E" x="701" y="260" width="31" height="6"></rect>
                        <rect id="Rectangle-path" fill="#643F1E" x="701" y="313" width="31" height="5"></rect>
                        <path d="M869,189 L837,189 L837,193 L869,193" id="Shape" fill="#643F1E"></path>
                        <path d="M869,226 L837,226 L837,231 L869,231" id="Shape" fill="#643F1E"></path>
                        <path d="M869,260 L837,260 L837,268 L869,268" id="Shape" fill="#643F1E"></path>
                        <path d="M869,314 L837,314 L837,320 L869,320" id="Shape" fill="#643F1E"></path>
                        <rect id="Rectangle-path" fill="#AF907D" x="432" y="75" width="5" height="45"></rect>
                        <path d="M553.8,47 L298.8,47 C300.9,46 303.2,42 305.4,41 L547.2,41 C549.5,42 551.7,46 553.8,47 L553.8,47 L553.8,47 Z" id="Shape" fill="#BB9A7A"></path>
                    </g>
                </g>
            </g>
        </g>
    </g>
</svg>