<svg width="55" height="45" viewBox="0 0 55 45" fill="none" xmlns="http://www.w3.org/2000/svg">
<g filter="url(#filter0_d)">
<path d="M7.49875 9.1125C6.89125 9.1125 6.3025 9.02625 5.7325 8.85375C5.17 8.68125 4.72375 8.4525 4.39375 8.1675L4.9 7.03125C5.2225 7.28625 5.61625 7.49625 6.08125 7.66125C6.55375 7.81875 7.02625 7.8975 7.49875 7.8975C8.08375 7.8975 8.51875 7.80375 8.80375 7.61625C9.09625 7.42875 9.2425 7.18125 9.2425 6.87375C9.2425 6.64875 9.16 6.465 8.995 6.3225C8.8375 6.1725 8.635 6.05625 8.3875 5.97375C8.14 5.89125 7.8025 5.7975 7.375 5.6925C6.775 5.55 6.2875 5.4075 5.9125 5.265C5.545 5.1225 5.22625 4.90125 4.95625 4.60125C4.69375 4.29375 4.5625 3.88125 4.5625 3.36375C4.5625 2.92875 4.67875 2.535 4.91125 2.1825C5.15125 1.8225 5.5075 1.5375 5.98 1.3275C6.46 1.1175 7.045 1.0125 7.735 1.0125C8.215 1.0125 8.6875 1.0725 9.1525 1.1925C9.6175 1.3125 10.0188 1.485 10.3562 1.71L9.895 2.84625C9.55 2.64375 9.19 2.49 8.815 2.385C8.44 2.28 8.07625 2.2275 7.72375 2.2275C7.14625 2.2275 6.715 2.325 6.43 2.52C6.1525 2.715 6.01375 2.97375 6.01375 3.29625C6.01375 3.52125 6.0925 3.705 6.25 3.8475C6.415 3.99 6.62125 4.1025 6.86875 4.185C7.11625 4.2675 7.45375 4.36125 7.88125 4.46625C8.46625 4.60125 8.94625 4.74375 9.32125 4.89375C9.69625 5.03625 10.015 5.2575 10.2775 5.5575C10.5475 5.8575 10.6825 6.2625 10.6825 6.7725C10.6825 7.2075 10.5625 7.60125 10.3225 7.95375C10.09 8.30625 9.73375 8.5875 9.25375 8.7975C8.77375 9.0075 8.18875 9.1125 7.49875 9.1125ZM15.6089 8.67375C15.4439 8.80875 15.2414 8.91 15.0014 8.9775C14.7689 9.045 14.5214 9.07875 14.2589 9.07875C13.5989 9.07875 13.0889 8.90625 12.7289 8.56125C12.3689 8.21625 12.1889 7.71375 12.1889 7.05375V4.1625H11.1989V3.0375H12.1889V1.665H13.5952V3.0375H15.2039V4.1625H13.5952V7.02C13.5952 7.3125 13.6664 7.5375 13.8089 7.695C13.9514 7.845 14.1577 7.92 14.4277 7.92C14.7427 7.92 15.0052 7.8375 15.2152 7.6725L15.6089 8.67375ZM22.582 2.9925V9H21.2433V8.235C21.0183 8.505 20.737 8.715 20.3995 8.865C20.062 9.0075 19.6983 9.07875 19.3083 9.07875C18.5058 9.07875 17.872 8.8575 17.407 8.415C16.9495 7.965 16.7208 7.30125 16.7208 6.42375V2.9925H18.127V6.2325C18.127 6.7725 18.247 7.1775 18.487 7.4475C18.7345 7.71 19.0833 7.84125 19.5333 7.84125C20.0358 7.84125 20.4333 7.6875 20.7258 7.38C21.0258 7.065 21.1758 6.615 21.1758 6.03V2.9925H22.582ZM30.307 0.6525V9H28.957V8.22375C28.7245 8.50875 28.4357 8.7225 28.0907 8.865C27.7532 9.0075 27.3782 9.07875 26.9657 9.07875C26.3882 9.07875 25.867 8.95125 25.402 8.69625C24.9445 8.44125 24.5845 8.08125 24.322 7.61625C24.0595 7.14375 23.9282 6.60375 23.9282 5.99625C23.9282 5.38875 24.0595 4.8525 24.322 4.3875C24.5845 3.9225 24.9445 3.5625 25.402 3.3075C25.867 3.0525 26.3882 2.925 26.9657 2.925C27.3632 2.925 27.727 2.9925 28.057 3.1275C28.387 3.2625 28.6682 3.465 28.9007 3.735V0.6525H30.307ZM27.1345 7.875C27.472 7.875 27.7757 7.8 28.0457 7.65C28.3157 7.4925 28.5295 7.27125 28.687 6.98625C28.8445 6.70125 28.9232 6.37125 28.9232 5.99625C28.9232 5.62125 28.8445 5.29125 28.687 5.00625C28.5295 4.72125 28.3157 4.50375 28.0457 4.35375C27.7757 4.19625 27.472 4.1175 27.1345 4.1175C26.797 4.1175 26.4932 4.19625 26.2232 4.35375C25.9532 4.50375 25.7395 4.72125 25.582 5.00625C25.4245 5.29125 25.3457 5.62125 25.3457 5.99625C25.3457 6.37125 25.4245 6.70125 25.582 6.98625C25.7395 7.27125 25.9532 7.4925 26.2232 7.65C26.4932 7.8 26.797 7.875 27.1345 7.875ZM37.7941 6.03C37.7941 6.1275 37.7866 6.26625 37.7716 6.44625H33.0579C33.1404 6.88875 33.3541 7.24125 33.6991 7.50375C34.0516 7.75875 34.4866 7.88625 35.0041 7.88625C35.6641 7.88625 36.2079 7.66875 36.6354 7.23375L37.3891 8.1C37.1191 8.4225 36.7779 8.66625 36.3654 8.83125C35.9529 8.99625 35.4879 9.07875 34.9704 9.07875C34.3104 9.07875 33.7291 8.9475 33.2266 8.685C32.7241 8.4225 32.3341 8.05875 32.0566 7.59375C31.7866 7.12125 31.6516 6.58875 31.6516 5.99625C31.6516 5.41125 31.7829 4.88625 32.0454 4.42125C32.3154 3.94875 32.6866 3.58125 33.1591 3.31875C33.6316 3.05625 34.1641 2.925 34.7566 2.925C35.3416 2.925 35.8629 3.05625 36.3204 3.31875C36.7854 3.57375 37.1454 3.9375 37.4004 4.41C37.6629 4.875 37.7941 5.415 37.7941 6.03ZM34.7566 4.05C34.3066 4.05 33.9241 4.185 33.6091 4.455C33.3016 4.7175 33.1141 5.07 33.0466 5.5125H36.4554C36.3954 5.0775 36.2116 4.725 35.9041 4.455C35.5966 4.185 35.2141 4.05 34.7566 4.05ZM42.5537 2.925C43.3112 2.925 43.9187 3.14625 44.3762 3.58875C44.8337 4.03125 45.0624 4.6875 45.0624 5.5575V9H43.6562V5.7375C43.6562 5.2125 43.5324 4.81875 43.2849 4.55625C43.0374 4.28625 42.6849 4.15125 42.2274 4.15125C41.7099 4.15125 41.3012 4.30875 41.0012 4.62375C40.7012 4.93125 40.5512 5.3775 40.5512 5.9625V9H39.1449V2.9925H40.4837V3.76875C40.7162 3.49125 41.0087 3.28125 41.3612 3.13875C41.7137 2.99625 42.1112 2.925 42.5537 2.925ZM50.4576 8.67375C50.2926 8.80875 50.0901 8.91 49.8501 8.9775C49.6176 9.045 49.3701 9.07875 49.1076 9.07875C48.4476 9.07875 47.9376 8.90625 47.5776 8.56125C47.2176 8.21625 47.0376 7.71375 47.0376 7.05375V4.1625H46.0476V3.0375H47.0376V1.665H48.4438V3.0375H50.0526V4.1625H48.4438V7.02C48.4438 7.3125 48.5151 7.5375 48.6576 7.695C48.8001 7.845 49.0063 7.92 49.2763 7.92C49.5913 7.92 49.8538 7.8375 50.0638 7.6725L50.4576 8.67375ZM16.5663 15.125L13.9563 23H12.4038L10.4575 17.1725L8.4775 23H6.91375L4.30375 15.125H5.8225L7.78 21.11L9.81625 15.125H11.1663L13.1575 21.1437L15.1713 15.125H16.5663ZM22.8198 20.03C22.8198 20.1275 22.8123 20.2662 22.7973 20.4462H18.0835C18.166 20.8887 18.3798 21.2412 18.7248 21.5037C19.0773 21.7587 19.5123 21.8862 20.0298 21.8862C20.6898 21.8862 21.2335 21.6687 21.661 21.2337L22.4148 22.1C22.1448 22.4225 21.8035 22.6662 21.391 22.8312C20.9785 22.9962 20.5135 23.0788 19.996 23.0788C19.336 23.0788 18.7548 22.9475 18.2523 22.685C17.7498 22.4225 17.3598 22.0587 17.0823 21.5938C16.8123 21.1212 16.6773 20.5887 16.6773 19.9962C16.6773 19.4112 16.8085 18.8862 17.071 18.4212C17.341 17.9487 17.7123 17.5812 18.1848 17.3188C18.6573 17.0562 19.1898 16.925 19.7823 16.925C20.3673 16.925 20.8885 17.0562 21.346 17.3188C21.811 17.5737 22.171 17.9375 22.426 18.41C22.6885 18.875 22.8198 19.415 22.8198 20.03ZM19.7823 18.05C19.3323 18.05 18.9498 18.185 18.6348 18.455C18.3273 18.7175 18.1398 19.07 18.0723 19.5125H21.481C21.421 19.0775 21.2373 18.725 20.9298 18.455C20.6223 18.185 20.2398 18.05 19.7823 18.05ZM24.1705 14.6525H25.5768V23H24.1705V14.6525ZM29.8638 15.71C29.2713 15.71 28.975 16.0325 28.975 16.6775V17.0375H30.6288V18.1625H29.02V23H27.6138V18.1625H26.6238V17.0375H27.6138V16.655C27.6138 16.01 27.8013 15.5037 28.1763 15.1362C28.5513 14.7612 29.08 14.5737 29.7625 14.5737C30.3025 14.5737 30.7263 14.6825 31.0338 14.9L30.64 15.9575C30.4 15.7925 30.1413 15.71 29.8638 15.71ZM33.7605 16.925C34.6455 16.925 35.3205 17.1387 35.7855 17.5662C36.258 17.9862 36.4942 18.6237 36.4942 19.4787V23H35.1667V22.2687C34.9942 22.5312 34.7467 22.7337 34.4242 22.8762C34.1092 23.0112 33.7267 23.0788 33.2767 23.0788C32.8267 23.0788 32.433 23.0038 32.0955 22.8537C31.758 22.6962 31.4955 22.4825 31.308 22.2125C31.128 21.935 31.038 21.6237 31.038 21.2787C31.038 20.7387 31.2367 20.3075 31.6342 19.985C32.0392 19.655 32.673 19.49 33.5355 19.49H35.088V19.4C35.088 18.98 34.9605 18.6575 34.7055 18.4325C34.458 18.2075 34.0867 18.095 33.5917 18.095C33.2542 18.095 32.9205 18.1475 32.5905 18.2525C32.268 18.3575 31.9942 18.5037 31.7692 18.6912L31.218 17.6675C31.533 17.4275 31.9117 17.2437 32.3542 17.1162C32.7967 16.9887 33.2655 16.925 33.7605 16.925ZM33.5692 22.055C33.9217 22.055 34.233 21.9762 34.503 21.8187C34.7805 21.6537 34.9755 21.4212 35.088 21.1212V20.4237H33.6367C32.8267 20.4237 32.4217 20.69 32.4217 21.2225C32.4217 21.4775 32.523 21.68 32.7255 21.83C32.928 21.98 33.2092 22.055 33.5692 22.055ZM39.6377 17.87C40.0427 17.24 40.7552 16.925 41.7752 16.925V18.2637C41.6552 18.2412 41.5465 18.23 41.449 18.23C40.9015 18.23 40.474 18.3912 40.1665 18.7137C39.859 19.0287 39.7052 19.4862 39.7052 20.0862V23H38.299V16.9925H39.6377V17.87ZM48.5607 20.03C48.5607 20.1275 48.5532 20.2662 48.5382 20.4462H43.8245C43.907 20.8887 44.1207 21.2412 44.4657 21.5037C44.8182 21.7587 45.2532 21.8862 45.7707 21.8862C46.4307 21.8862 46.9745 21.6687 47.402 21.2337L48.1557 22.1C47.8857 22.4225 47.5445 22.6662 47.132 22.8312C46.7195 22.9962 46.2545 23.0788 45.737 23.0788C45.077 23.0788 44.4957 22.9475 43.9932 22.685C43.4907 22.4225 43.1007 22.0587 42.8232 21.5938C42.5532 21.1212 42.4182 20.5887 42.4182 19.9962C42.4182 19.4112 42.5495 18.8862 42.812 18.4212C43.082 17.9487 43.4532 17.5812 43.9257 17.3188C44.3982 17.0562 44.9307 16.925 45.5232 16.925C46.1082 16.925 46.6295 17.0562 47.087 17.3188C47.552 17.5737 47.912 17.9375 48.167 18.41C48.4295 18.875 48.5607 19.415 48.5607 20.03ZM45.5232 18.05C45.0732 18.05 44.6907 18.185 44.3757 18.455C44.0682 18.7175 43.8807 19.07 43.8132 19.5125H47.222C47.162 19.0775 46.9782 18.725 46.6707 18.455C46.3632 18.185 45.9807 18.05 45.5232 18.05ZM5.0575 28.125H8.5C9.34 28.125 10.0863 28.29 10.7388 28.62C11.3913 28.9425 11.8975 29.4037 12.2575 30.0037C12.6175 30.5962 12.7975 31.2825 12.7975 32.0625C12.7975 32.8425 12.6175 33.5325 12.2575 34.1325C11.8975 34.725 11.3913 35.1862 10.7388 35.5162C10.0863 35.8387 9.34 36 8.5 36H5.0575V28.125ZM8.4325 34.7625C9.01 34.7625 9.51625 34.6537 9.95125 34.4362C10.3938 34.2112 10.7313 33.8962 10.9638 33.4912C11.2038 33.0787 11.3238 32.6025 11.3238 32.0625C11.3238 31.5225 11.2038 31.05 10.9638 30.645C10.7313 30.2325 10.3938 29.9175 9.95125 29.7C9.51625 29.475 9.01 29.3625 8.4325 29.3625H6.52V34.7625H8.4325ZM14.2169 29.9925H15.6232V36H14.2169V29.9925ZM14.9257 29.0025C14.6707 29.0025 14.4569 28.9237 14.2844 28.7662C14.1119 28.6012 14.0257 28.3987 14.0257 28.1587C14.0257 27.9187 14.1119 27.72 14.2844 27.5625C14.4569 27.3975 14.6707 27.315 14.9257 27.315C15.1807 27.315 15.3944 27.3937 15.5669 27.5512C15.7394 27.7012 15.8257 27.8925 15.8257 28.125C15.8257 28.3725 15.7394 28.5825 15.5669 28.755C15.4019 28.92 15.1882 29.0025 14.9257 29.0025ZM23.0939 29.9925L20.5176 36H19.0664L16.4901 29.9925H17.9526L19.8201 34.4475L21.7439 29.9925H23.0939ZM23.9728 29.9925H25.379V36H23.9728V29.9925ZM24.6815 29.0025C24.4265 29.0025 24.2128 28.9237 24.0403 28.7662C23.8678 28.6012 23.7815 28.3987 23.7815 28.1587C23.7815 27.9187 23.8678 27.72 24.0403 27.5625C24.2128 27.3975 24.4265 27.315 24.6815 27.315C24.9365 27.315 25.1503 27.3937 25.3228 27.5512C25.4953 27.7012 25.5815 27.8925 25.5815 28.125C25.5815 28.3725 25.4953 28.5825 25.3228 28.755C25.1578 28.92 24.944 29.0025 24.6815 29.0025ZM29.081 36.0788C28.5935 36.0788 28.1172 36.015 27.6522 35.8875C27.1872 35.76 26.816 35.5987 26.5385 35.4037L27.0785 34.335C27.3485 34.515 27.671 34.6612 28.046 34.7737C28.4285 34.8787 28.8035 34.9312 29.171 34.9312C30.011 34.9312 30.431 34.71 30.431 34.2675C30.431 34.0575 30.3222 33.9112 30.1047 33.8287C29.8947 33.7462 29.5535 33.6675 29.081 33.5925C28.586 33.5175 28.181 33.4312 27.866 33.3337C27.5585 33.2362 27.2885 33.0675 27.056 32.8275C26.831 32.58 26.7185 32.2387 26.7185 31.8037C26.7185 31.2337 26.9547 30.78 27.4272 30.4425C27.9072 30.0975 28.5522 29.925 29.3622 29.925C29.7747 29.925 30.1872 29.9737 30.5997 30.0712C31.0122 30.1612 31.3497 30.285 31.6122 30.4425L31.0722 31.5112C30.5622 31.2112 29.9885 31.0612 29.351 31.0612C28.9385 31.0612 28.6235 31.125 28.406 31.2525C28.196 31.3725 28.091 31.5337 28.091 31.7362C28.091 31.9612 28.2035 32.1225 28.4285 32.22C28.661 32.31 29.0172 32.3962 29.4972 32.4787C29.9772 32.5537 30.371 32.64 30.6785 32.7375C30.986 32.835 31.2485 33 31.466 33.2325C31.691 33.465 31.8035 33.795 31.8035 34.2225C31.8035 34.785 31.5597 35.235 31.0722 35.5725C30.5847 35.91 29.921 36.0788 29.081 36.0788ZM33.0145 29.9925H34.4208V36H33.0145V29.9925ZM33.7233 29.0025C33.4683 29.0025 33.2545 28.9237 33.082 28.7662C32.9095 28.6012 32.8233 28.3987 32.8233 28.1587C32.8233 27.9187 32.9095 27.72 33.082 27.5625C33.2545 27.3975 33.4683 27.315 33.7233 27.315C33.9783 27.315 34.192 27.3937 34.3645 27.5512C34.537 27.7012 34.6233 27.8925 34.6233 28.125C34.6233 28.3725 34.537 28.5825 34.3645 28.755C34.1995 28.92 33.9858 29.0025 33.7233 29.0025ZM38.9665 36.0788C38.359 36.0788 37.8115 35.9475 37.324 35.685C36.8365 35.4225 36.454 35.0587 36.1765 34.5938C35.9065 34.1212 35.7715 33.5887 35.7715 32.9962C35.7715 32.4037 35.9065 31.875 36.1765 31.41C36.454 30.945 36.8365 30.5812 37.324 30.3188C37.8115 30.0562 38.359 29.925 38.9665 29.925C39.5815 29.925 40.1327 30.0562 40.6202 30.3188C41.1077 30.5812 41.4865 30.945 41.7565 31.41C42.034 31.875 42.1727 32.4037 42.1727 32.9962C42.1727 33.5887 42.034 34.1212 41.7565 34.5938C41.4865 35.0587 41.1077 35.4225 40.6202 35.685C40.1327 35.9475 39.5815 36.0788 38.9665 36.0788ZM38.9665 34.875C39.484 34.875 39.9115 34.7025 40.249 34.3575C40.5865 34.0125 40.7552 33.5587 40.7552 32.9962C40.7552 32.4337 40.5865 31.98 40.249 31.635C39.9115 31.29 39.484 31.1175 38.9665 31.1175C38.449 31.1175 38.0215 31.29 37.684 31.635C37.354 31.98 37.189 32.4337 37.189 32.9962C37.189 33.5587 37.354 34.0125 37.684 34.3575C38.0215 34.7025 38.449 34.875 38.9665 34.875ZM46.9262 29.925C47.6837 29.925 48.2912 30.1462 48.7487 30.5887C49.2062 31.0312 49.435 31.6875 49.435 32.5575V36H48.0287V32.7375C48.0287 32.2125 47.905 31.8187 47.6575 31.5562C47.41 31.2862 47.0575 31.1512 46.6 31.1512C46.0825 31.1512 45.6737 31.3087 45.3737 31.6237C45.0737 31.9312 44.9237 32.3775 44.9237 32.9625V36H43.5175V29.9925H44.8562V30.7687C45.0887 30.4912 45.3812 30.2812 45.7337 30.1387C46.0862 29.9962 46.4837 29.925 46.9262 29.925Z" fill="#074F57"/>
</g>
<defs>
<filter id="filter0_d" x="0.303711" y="0.652496" width="54.1538" height="43.4263" filterUnits="userSpaceOnUse" color-interpolation-filters="sRGB">
<feFlood flood-opacity="0" result="BackgroundImageFix"/>
<feColorMatrix in="SourceAlpha" type="matrix" values="0 0 0 0 0 0 0 0 0 0 0 0 0 0 0 0 0 0 127 0"/>
<feOffset dy="4"/>
<feGaussianBlur stdDeviation="2"/>
<feColorMatrix type="matrix" values="0 0 0 0 0 0 0 0 0 0 0 0 0 0 0 0 0 0 0.25 0"/>
<feBlend mode="normal" in2="BackgroundImageFix" result="effect1_dropShadow"/>
<feBlend mode="normal" in="SourceGraphic" in2="effect1_dropShadow" result="shape"/>
</filter>
</defs>
</svg>
