<svg width="146" height="129" viewBox="0 0 146 129" version="1.1" xmlns="http://www.w3.org/2000/svg" xmlns:xlink="http://www.w3.org/1999/xlink">
    <title>profile-image</title>
    <desc>Created using Figma</desc>
    <g id="Canvas" transform="translate(-3203 -1163)">
        <g id="profile-image">
            <g id="Rectangle 6" filter="url(#filter0_d)">
                <use xlink:href="#path0_fill" transform="translate(3207 1163)" fill="#FFFFFF"/>
            </g>
            <g id="Vector">
                <use xlink:href="#path1_fill" transform="translate(3236 1185)" fill="#00E5FF"/>
            </g>
        </g>
    </g>
    <defs>
        <filter id="filter0_d" filterUnits="userSpaceOnUse" x="3203" y="1163" width="146" height="129" color-interpolation-filters="sRGB">
            <feFlood flood-opacity="0" result="BackgroundImageFix"/>
            <feColorMatrix in="SourceAlpha" type="matrix" values="0 0 0 0 0 0 0 0 0 0 0 0 0 0 0 0 0 0 255 0"/>
            <feOffset dx="0" dy="4"/>
            <feGaussianBlur stdDeviation="2"/>
            <feColorMatrix type="matrix" values="0 0 0 0 0 0 0 0 0 0 0 0 0 0 0 0 0 0 0.25 0"/>
            <feBlend mode="normal" in2="BackgroundImageFix" result="effect1_dropShadow"/>
            <feBlend mode="normal" in="SourceGraphic" in2="effect1_dropShadow" result="shape"/>
        </filter>
        <path id="path0_fill" d="M 0 20C 0 8.95431 8.95431 0 20 0L 118 0C 129.046 0 138 8.95431 138 20L 138 101C 138 112.046 129.046 121 118 121L 20 121C 8.95431 121 0 112.046 0 101L 0 20Z"/>
        <path id="path1_fill" d="M 37.5 37.5C 47.8594 37.5 56.25 29.1094 56.25 18.75C 56.25 8.39062 47.8594 0 37.5 0C 27.1406 0 18.75 8.39062 18.75 18.75C 18.75 29.1094 27.1406 37.5 37.5 37.5ZM 37.5 46.875C 24.9844 46.875 0 53.1562 0 65.625C 0 70.8027 4.19733 75 9.375 75L 65.625 75C 70.8027 75 75 70.8027 75 65.625C 75 53.1562 50.0156 46.875 37.5 46.875Z"/>
    </defs>
</svg>
