<?xml version="1.0" encoding="UTF-8"?>
<svg width="35" height="35" viewBox="0 0 35 35" version="1.1" xmlns="http://www.w3.org/2000/svg" xmlns:xlink="http://www.w3.org/1999/xlink">
<title>certificate</title>
<desc>Created using Figma</desc>
<g id="Canvas" transform="translate(-1420 -1867)">
<g id="certificate">
<g id="Vector">
<use xlink:href="#path0_fill" transform="translate(1420 1867)" fill="#00BCD4"/>
</g>
</g>
</g>
<defs>
<path id="path0_fill" d="M 3.5 0C 1.5575 0 0 1.63947 0 3.68421L 0 22.1053C 7.77156e-16 23.0824 0.368749 24.0195 1.02513 24.7104C 1.6815 25.4013 2.57174 25.7895 3.5 25.7895L 17.5 25.7895L 17.5 35L 22.75 29.4737L 28 35L 28 25.7895L 31.5 25.7895C 32.4283 25.7895 33.3185 25.4013 33.9749 24.7104C 34.6313 24.0195 35 23.0824 35 22.1053L 35 9.21053L 35 5.52632L 35 3.68421C 35 2.7071 34.6313 1.77 33.9749 1.07908C 33.3185 0.388157 32.4283 8.18059e-16 31.5 0L 24.5 0L 3.5 0ZM 17.5 3.68421L 22.75 7.36842L 28 3.68421L 28 10.1316L 33.25 12.8947L 28 15.6579L 28 22.1053L 22.75 18.4211L 17.5 22.1053L 17.5 15.6579L 12.25 12.8947L 17.5 10.1316L 17.5 3.68421ZM 3.5 3.68421L 12.25 3.68421L 12.25 7.36842L 3.5 7.36842L 3.5 3.68421ZM 3.5 11.0526L 8.75 11.0526L 8.75 14.7368L 3.5 14.7368L 3.5 11.0526ZM 3.5 18.4211L 12.25 18.4211L 12.25 22.1053L 3.5 22.1053L 3.5 18.4211Z"/>
</defs>
</svg>
