<?xml version="1.0" encoding="UTF-8"?>
<svg width="27" height="27" viewBox="0 0 27 27" version="1.1" xmlns="http://www.w3.org/2000/svg" xmlns:xlink="http://www.w3.org/1999/xlink">
<title>Vector</title>
<desc>Created using Figma</desc>
<g id="Canvas" transform="translate(-1423 -2122)">
<g id="Vector">
<use xlink:href="#path0_fill" transform="translate(1423.38 2122.38)" fill="#00BCD4"/>
</g>
</g>
<defs>
<path id="path0_fill" d="M 5.27917 11.3604C 7.37917 15.4875 10.7625 18.8563 14.8896 20.9708L 18.0979 17.7625C 18.4917 17.3688 19.075 17.2375 19.5854 17.4125C 21.2188 17.9521 22.9833 18.2438 24.7917 18.2438C 25.5938 18.2438 26.25 18.9 26.25 19.7021L 26.25 24.7917C 26.25 25.5938 25.5938 26.25 24.7917 26.25C 11.0979 26.25 0 15.1521 0 1.45833C 0 0.65625 0.65625 0 1.45833 0L 6.5625 0C 7.36458 0 8.02083 0.65625 8.02083 1.45833C 8.02083 3.28125 8.3125 5.03125 8.85208 6.66458C 9.0125 7.175 8.89583 7.74375 8.4875 8.15208L 5.27917 11.3604Z"/>
</defs>
</svg>
